# xmcd
#
# Track frame offsets:
#        150
#        7483
#        23214
#        35857
#        54973
#        71817
#        87700
#        104269
#        118128
#        126348
#        138296
#        152704
#
# Disc length: 2233 seconds
#
# Revision: 1
# Processed by: cddbd v1.5.2PL0 Copyright (c) Steve Scherf et al.
# Submitted via: ExactAudioCopy v0.95b3
#
DISCID=b208b70c
DTITLE=Teitur - Káta Hornið
DYEAR=2007
DGENRE=Blues
TTITLE0=Lat tárini falla
TTITLE1=Andvekur
TTITLE2=Tokspor
TTITLE3=Útisetin
TTITLE4=Káta Hornið
TTITLE5=Havnin er ein lítil bygd
TTITLE6=Sangir í moll
TTITLE7=Far ongantíð frá maer
TTITLE8=Tú ert ein eingil
TTITLE9=Ongir pengar
TTITLE10=Hugsa positivt
TTITLE11=Yngra Ættarlið
EXTD=
EXTT0=
EXTT1=
EXTT2=
EXTT3=
EXTT4=
EXTT5=
EXTT6=
EXTT7=
EXTT8=
EXTT9=
EXTT10=
EXTT11=
PLAYORDER=
